<svg xmlns="http://www.w3.org/2000/svg" width="81" height="97" viewBox="0 0 81 97"><g><g><path fill="#1d1d1b" d="M4.47.81c.99 0 1.806.117 2.448.349.642.233 1.15.536 1.522.908.372.373.632.786.78 1.238.146.452.22.898.22 1.338 0 .856-.169 1.57-.505 2.146-.336.574-.877 1.039-1.623 1.393l2.714 5.72h-2.42L5.257 8.696c-.11.013-.226.022-.348.028a7.87 7.87 0 0 1-.385.009H2.178v5.17H-.004V.812zm.165 6.052c.501 0 .917-.052 1.247-.156.33-.104.59-.25.78-.44.19-.19.323-.42.403-.688.08-.268.12-.568.12-.898 0-.305-.047-.584-.139-.834a1.475 1.475 0 0 0-.458-.642c-.214-.177-.498-.315-.853-.413-.355-.097-.795-.146-1.32-.146H2.178v4.217z"/></g><g><path fill="#1d1d1b" d="M17.36 12.656a4.403 4.403 0 0 1-1.302 1.063c-.513.282-1.136.422-1.87.422a4.43 4.43 0 0 1-1.265-.174 2.922 2.922 0 0 1-1.018-.522 2.413 2.413 0 0 1-.678-.89c-.165-.36-.248-.785-.248-1.274 0-.66.147-1.195.44-1.605.294-.41.676-.73 1.146-.962a5.5 5.5 0 0 1 1.586-.486 15.67 15.67 0 0 1 1.761-.175l1.412-.073v-.403c0-.721-.175-1.22-.523-1.494-.348-.275-.804-.413-1.366-.413-.648 0-1.128.11-1.439.33-.312.22-.517.538-.615.954l-1.907-.202c.171-.93.593-1.607 1.266-2.035.672-.428 1.595-.642 2.768-.642.758 0 1.385.098 1.88.293.495.196.89.465 1.182.807.294.342.498.749.615 1.219.116.47.174.988.174 1.55v5.959H17.36zm-1.375-3.21c-.623.038-1.128.105-1.513.203-.385.098-.68.223-.889.376a1.1 1.1 0 0 0-.413.53c-.067.204-.1.42-.1.652 0 .416.131.74.394.972.263.233.651.349 1.164.349.917 0 1.595-.232 2.035-.697.44-.465.661-1.094.661-1.888v-.551z"/></g><g><path fill="#1d1d1b" d="M23.668 4.368V5.78c.33-.5.727-.886 1.192-1.156a2.923 2.923 0 0 1 1.485-.403c.208 0 .382.006.523.02.14.011.277.03.412.053l-.238 1.907a2.42 2.42 0 0 0-.44-.073 6.58 6.58 0 0 0-.495-.018c-.392 0-.734.064-1.027.192a2.333 2.333 0 0 0-.743.504 2.13 2.13 0 0 0-.458.707 2.145 2.145 0 0 0-.156.797v5.593H21.65V4.368z"/></g><g><path fill="#1d1d1b" d="M36.87 11.08c-.171.99-.593 1.756-1.265 2.3-.673.544-1.638.816-2.897.816-1.516 0-2.668-.437-3.457-1.31-.788-.875-1.182-2.107-1.182-3.696 0-.819.113-1.546.339-2.182.226-.635.544-1.17.953-1.604.41-.434.899-.764 1.467-.99a5.027 5.027 0 0 1 1.88-.339c.733 0 1.369.112 1.907.34.537.225.983.543 1.338.952.355.41.617.898.789 1.467.17.57.256 1.201.256 1.898v.917h-6.84c.025.868.245 1.571.66 2.108.416.538 1.046.807 1.89.807.66 0 1.155-.128 1.485-.385.33-.257.55-.624.66-1.1zM34.963 8.2c0-.782-.183-1.399-.55-1.852-.367-.452-.954-.678-1.76-.678-.77 0-1.357.23-1.761.687-.403.46-.635 1.073-.696 1.843z"/></g><g><path fill="#1d1d1b" d="M50.2 9.484a6.21 6.21 0 0 1-.495 1.889 4.688 4.688 0 0 1-1.064 1.503 4.76 4.76 0 0 1-1.65 1c-.648.238-1.4.357-2.255.357-.942 0-1.782-.16-2.521-.477a5.03 5.03 0 0 1-1.871-1.366c-.507-.593-.892-1.314-1.155-2.163-.263-.85-.394-1.8-.394-2.852 0-1.076.144-2.041.43-2.897.288-.855.695-1.58 1.22-2.173A5.236 5.236 0 0 1 42.334.948c.733-.311 1.54-.467 2.42-.467.819 0 1.528.104 2.127.312a4.36 4.36 0 0 1 1.53.889c.423.385.759.846 1.01 1.385.25.538.437 1.136.559 1.796l-2.182.312A6.66 6.66 0 0 0 47.43 4a2.747 2.747 0 0 0-.577-.871 2.43 2.43 0 0 0-.871-.55c-.343-.128-.752-.192-1.23-.192-.586 0-1.105.116-1.557.348a3.192 3.192 0 0 0-1.146.999c-.312.435-.548.957-.706 1.568a8.17 8.17 0 0 0-.24 2.054c0 .77.084 1.46.249 2.072.165.61.406 1.134.724 1.568.318.434.7.764 1.146.99.446.226.956.339 1.53.339.515 0 .952-.067 1.312-.202.36-.134.663-.324.908-.568.244-.245.437-.541.577-.89.14-.348.242-.742.303-1.182z"/></g><g><path fill="#1d1d1b" d="M54.105 4.368V5.78c.33-.5.727-.886 1.192-1.156a2.923 2.923 0 0 1 1.485-.403c.208 0 .382.006.523.02.14.011.277.03.412.053l-.238 1.907a2.42 2.42 0 0 0-.44-.073 6.58 6.58 0 0 0-.495-.018c-.392 0-.734.064-1.027.192a2.333 2.333 0 0 0-.743.504 2.146 2.146 0 0 0-.458.707 2.145 2.145 0 0 0-.156.797v5.593h-2.072V4.368z"/></g><g><path fill="#1d1d1b" d="M64.611 12.656a4.403 4.403 0 0 1-1.302 1.063c-.513.282-1.136.422-1.87.422a4.43 4.43 0 0 1-1.265-.174 2.922 2.922 0 0 1-1.018-.522 2.413 2.413 0 0 1-.678-.89c-.165-.36-.248-.785-.248-1.274 0-.66.147-1.195.44-1.605.294-.41.676-.73 1.146-.962a5.5 5.5 0 0 1 1.586-.486 15.67 15.67 0 0 1 1.761-.175l1.412-.073v-.403c0-.721-.175-1.22-.523-1.494-.348-.275-.804-.413-1.366-.413-.648 0-1.128.11-1.439.33-.312.22-.517.538-.615.954l-1.907-.202c.171-.93.593-1.607 1.266-2.035.672-.428 1.595-.642 2.768-.642.758 0 1.385.098 1.88.293.495.196.89.465 1.182.807.294.342.498.749.615 1.219.116.47.174.988.174 1.55v5.959h-1.999zm-1.375-3.21c-.623.038-1.128.105-1.513.203-.385.098-.68.223-.889.376a1.1 1.1 0 0 0-.413.53c-.067.204-.1.42-.1.652 0 .416.131.74.394.972.263.233.651.349 1.164.349.917 0 1.595-.232 2.035-.697.44-.465.661-1.094.661-1.888v-.551z"/></g><g><path fill="#1d1d1b" d="M69.489 6.018h-1.485v-1.65h1.485v-.55c0-1.002.275-1.779.825-2.329.55-.55 1.314-.825 2.292-.825.648 0 1.247.085 1.797.257L74.09 2.48a3.806 3.806 0 0 0-1.1-.165c-.452 0-.801.122-1.045.367-.245.245-.367.605-.367 1.082v.605h2.31v1.65h-2.31v7.885h-2.09z"/></g><g><path fill="#1d1d1b" d="M74.77 6.018v-1.65h1.503V1.801h2.072v2.567h2.365v1.65h-2.365v4.988c0 .49.1.843.302 1.063.202.22.498.33.89.33.207 0 .406-.012.595-.037.19-.024.376-.067.56-.128l.311 1.558a5.979 5.979 0 0 1-1.907.294c-1.05 0-1.785-.272-2.2-.816-.416-.544-.623-1.359-.623-2.448V6.018z"/></g><g><path fill="#1d1d1b" d="M19.414 44.86l2.03.587 3.339-11.528 9.583 6.558 1.194-1.744-10.414-7.127v-8.47h-2.114v7.316l-6.273-4.27-1.19 1.748 7.308 4.973z"/></g><g><path fill="#1d1d1b" d="M39.45 43.868h-9.193l-3.246-3.246-1.495 1.495 3.556 3.555c.198.198.467.31.747.31h9.63v7.299h2.115v-7.3h9.473c.28 0 .549-.111.748-.31l3.64-3.64-1.494-1.495-3.332 3.332h-9.035V30.035h10.345V27.92h-23.38v2.114h10.92z"/></g><g><path fill="#1d1d1b" d="M20.916 50.485l-3.988 1.435-5.229-9.017h6.194V40.79h-7.42L4.236 30.034h9.176V27.92H2.402a1.058 1.058 0 0 0-.915 1.587L8.03 40.79H3.146v2.114h6.11l5.65 9.745-10.105 3.636.716 1.99 16.115-5.8z"/></g><g><path fill="#1d1d1b" d="M46.634 40.477l9.583-6.557 3.34 11.527 2.03-.588-3.464-11.956 7.308-4.973-1.19-1.748-6.273 4.27v-7.317h-2.114v8.47L45.44 38.733z"/></g><g><path fill="#1d1d1b" d="M79.514 28.45a1.056 1.056 0 0 0-.916-.53h-11.01v2.114h9.175l-6.237 10.755h-7.42v2.115H69.3l-5.229 9.017-3.988-1.435-.715 1.988 16.114 5.8.716-1.99-10.105-3.636 5.651-9.744h6.11v-2.115H72.97l6.543-11.281c.19-.327.19-.73.001-1.058z"/></g><g><path fill="#1d1d1b" d="M53.125 57.334c10.896.046 19.746 8.924 19.746 19.832h-2.114c0-4.952-2.045-9.434-5.332-12.652l-5.239 6.89 5.595 5.595-1.495 1.496-5.392-5.393L41.5 95.978a1.055 1.055 0 0 1-.84.416h-.004c-.053 0-.104-.01-.156-.018-.052.007-.104.018-.157.018h-.003c-.33 0-.64-.153-.84-.416L22.104 73.102l-5.392 5.393-1.494-1.496 5.595-5.595-5.24-6.89c-3.287 3.217-5.332 7.7-5.332 12.652H8.128c0-10.907 8.851-19.785 19.747-19.832l.136-.022c.056-.01.115-.005.17-.013.898-.016 1.75-.348 2.388-.986a3.329 3.329 0 0 0 .951-1.995l-6.535-1.18.376-2.08 12.103 2.187c.46.084.811.459.863.923l.53 4.769c.021.187-.008.376-.086.548l-1.37 3.062H43.6l-1.37-3.062a1.053 1.053 0 0 1-.087-.548l.53-4.77a1.06 1.06 0 0 1 .863-.922l12.104-2.187.376 2.08-6.536 1.18c.087.753.407 1.453.951 1.996.64.637 1.491.97 2.388.984.056.008.114.004.171.014zm-24.842 20.4l8.442-18.85-.412-3.7-2.7-.487a5.443 5.443 0 0 1-1.55 3.113 5.442 5.442 0 0 1-3.796 1.601l-.138.023a1.188 1.188 0 0 1-.168.014 17.623 17.623 0 0 0-10.788 3.676l5.15 6.771 9.88-9.878 1.494 1.493-10.083 10.084zm11-.203l-9.199 1.377-.343.744 9.542 12.9zm0-5.655l-4.517-3.447-3.743 8.36 8.26-1.403zm6.063-5.428l-.8-1.787h-8.092l-.8 1.787 4.846 3.67zm-3.63 5.428v3.51l8.26 1.404-3.743-8.36zm9.542 7.775l-.343-.742-9.199-1.379v15.023zm12.568-16.526a17.62 17.62 0 0 0-10.787-3.678c-.057 0-.113-.005-.168-.013l-.139-.022a5.442 5.442 0 0 1-3.795-1.602 5.435 5.435 0 0 1-1.55-3.114l-2.7.489-.412 3.698 8.441 18.851 4.67-6.14L47.303 61.51l1.494-1.494 9.88 9.88z"/></g></g></svg>